<svg id="Layer_1" data-name="Layer 1" xmlns="http://www.w3.org/2000/svg" viewBox="0 0 392.04 164.41"><defs><style>.cls-1{fill:#231f20;}.cls-2{fill:#b1953a;}.cls-3{fill:none;stroke:#231f20;stroke-width:1.35px;}</style></defs><path class="cls-1" d="M124.82,156.57h-1.7V141.18H112.19v94.46h3.55v1.3H93.6v-1.3h3.69V141.18H86.22v15.39H84.65V136.29h40.17Z" transform="translate(-84.65 -136.15)"/><path class="cls-1" d="M176.34,236.94H158q0-7.62.14-22.72t.14-22.57V173.82q-.7-14.37-4-14.38-5.11,0-5.11,15.82v61.68H130.92v-1.3h4V137.3h-4v-1.15h22.29v1.15h-4v23.14Q154.9,154,160.3,154q7.66,0,10.22,5.47,1.71,3.6,1.7,12.24v63.95h4.12Z" transform="translate(-84.65 -136.15)"/><path class="cls-1" d="M218.92,178.9v15H197.06q0,3.15-.14,9.45v9.46q0,12,.42,14,1.56,8.31,8.66,8.31,9.36,0,11.07-13.37h1.42q-.7,8.49-4.4,12t-11.78,3.52q-10.65,0-15.19-3.73-3.83-3.16-4.39-10.34-.15-1-.15-15.64,0-5.44.15-16.37t.14-16.36q0-11.06,3.11-15.5,3.81-5.44,14.56-5.45,12,0,15.83,6.87Q219.06,165.58,218.92,178.9Zm-14.06-5.51v-7q0-11.21-4.32-11.21-2.92,0-3.62,8.91v19.55q.14,5.61.14,8.49h7.8V173.39Z" transform="translate(-84.65 -136.15)"/><path class="cls-1" d="M274.55,197.11H273v-9.34H257.8v47.87h3.55v1.3h-22v-1.3h3.55v-98h-3.55v-1.3h35.2V155H273V140.46H257.8v43.28H273v-9.49h1.56Z" transform="translate(-84.65 -136.15)"/><path class="cls-1" d="M325.5,236.94H307.19V231q-5.67,6.33-11.07,6.33-7.67,0-10.22-5.46-1.69-3.6-1.7-12.22V155.41h-4.12V154h18.45q0,7.64-.21,22.9t-.21,22.9v17.87q.7,14.4,4,14.4,5.12,0,5.11-15.7V154H325.5v1.43h-4v80.23h4Z" transform="translate(-84.65 -136.15)"/><path class="cls-1" d="M351.19,236.94H328.9v-1.3h4V137.3h-4v-1.15h18.31v99.49h4Z" transform="translate(-84.65 -136.15)"/><path class="cls-1" d="M381.13,231.33q-4,6.61-11.21,6.61t-9.51-5.32q-1.56-3.3-1.56-11.64V155.85H355.3V154h3.55V142.47h14.48V154H379v1.87h-5.68v71.6q0,6.18,2.55,6.18,1.56,0,4.4-3.16Z" transform="translate(-84.65 -136.15)"/><path class="cls-1" d="M423.14,185.08V200.5q-.13,10.22-.14,15.41,0,11.67-3.26,16.42-4,5.89-14.9,5.9-10.65,0-15.19-4.32-3.82-3.6-4.54-11.52V206.26q0-5.32.14-15.77t.14-15.63q0-10.65,4.19-15.77T404,154q10.23,0,14.62,4.32,3.69,3.45,4.4,11.23Q423.15,170.69,423.14,185.08ZM409,184.37V168.23q-.7-12.81-4.4-12.82-5,0-5,11.67v19.74q-.13,13.25-.14,19.87c0,.29-.05,1.64-.14,4v6.48q0,19.44,4.83,19.44,4.53,0,4.54-12.67,0-6.63.14-19.88T409,184.37Z" transform="translate(-84.65 -136.15)"/><path class="cls-1" d="M476.22,236.94h-18V173.82q-.57-14.37-3.83-14.38-5.25,0-5.25,15.82v61.68H430.81v-1.3h4V155.85h-4v-1.3h18.31v5.89q5.67-6.47,11.07-6.46,7.67,0,10.36,5.47,1.69,3.75,1.7,12.24v63.95h4Z" transform="translate(-84.65 -136.15)"/><path class="cls-2" d="M127.66,281.1v15.38a38.5,38.5,0,0,1-16.92,4.08c-12,0-21.83-7.27-21.83-20.35,0-11.92,8.89-21.47,22.32-21.47,5,0,13.36,1.45,15.32,9.61-.42.17-1,.39-1.47.51-2-2.35-5.27-6.32-13.17-6.32-8.59,0-16.62,5.65-16.62,17.16,0,8.45,4.9,17.39,16.55,17.39A26.23,26.23,0,0,0,122,294.91V284.46h-9.87V281.1Z" transform="translate(-84.65 -136.15)"/><path class="cls-2" d="M213,299.38h-6.5l-11.59-18.17a32.34,32.34,0,0,1-5.51.33c-1.29,0-2-.05-2.88-.1v17.94h-5.89V259.91h11.65c6.25,0,9.38.5,12.14,2.24a9.17,9.17,0,0,1,4.23,7.82,10.14,10.14,0,0,1-2.21,6.32,12.33,12.33,0,0,1-5.82,3.81Zm-26.48-20c10,.11,16.06-3.47,16.06-9.11a6.32,6.32,0,0,0-1.78-4.42c-2-2.07-4.66-2.57-8.28-2.57h-6Z" transform="translate(-84.65 -136.15)"/><path class="cls-2" d="M280.43,300.56c-12.44,0-21.15-8.28-21.15-20.8,0-11.19,7.11-21,21.09-21,14.28,0,21,10.45,21,20.74C301.33,291.56,293.49,300.56,280.43,300.56Zm-.06-38.36c-9.07,0-14.84,7.5-14.84,17.39,0,11.3,6.81,17.5,14.9,17.5,9.32,0,14.65-7.6,14.65-17.67C295.08,270.76,290.36,262.2,280.37,262.2Z" transform="translate(-84.65 -136.15)"/><path class="cls-2" d="M388.06,299.38h-5.88v-5.87c-4.36,5.32-9.14,7-14.9,7-5.15,0-9.07-1.57-11.4-3.8-2.58-2.4-3.31-5.26-3.31-9.39V259.85h5.88v25.06c0,4.24.43,6.42,1.54,8,1.47,2.12,4.77,3.85,8.88,3.85,5.64,0,10.55-3.29,13.31-6.15V259.85h5.88Z" transform="translate(-84.65 -136.15)"/><path class="cls-2" d="M449,299.38h-6V259.91h13.55c4.11,0,6.93.17,9.38,1.17a9.12,9.12,0,0,1,6,8.78c0,6.32-5,11.74-17.72,11.74-1.29,0-1.66,0-5.21-.16Zm0-20.07a32.37,32.37,0,0,0,8.83-.73c5.64-1.39,8-4.8,8-8.21a7,7,0,0,0-1.78-4.64c-1.29-1.4-3.19-2.52-8.46-2.52H449Z" transform="translate(-84.65 -136.15)"/><line class="cls-3" x1="8.97" y1="111.97" x2="392.04" y2="111.97"/></svg>