<svg id="Layer_1" data-name="Layer 1" xmlns="http://www.w3.org/2000/svg" xmlns:xlink="http://www.w3.org/1999/xlink" viewBox="0 0 318.64 143.63"><defs><style>.cls-1{fill:#231f20;}.cls-2{fill:#b1953a;}.cls-3{fill:url(#_4505grade);}.cls-4,.cls-5{fill:none;}.cls-5{stroke:#231f20;stroke-width:0.65px;}</style><linearGradient id="_4505grade" x1="249.91" y1="238.75" x2="249.91" y2="207.35" gradientUnits="userSpaceOnUse"><stop offset="0" stop-color="#fff"/><stop offset="0.14" stop-color="#faf7f1"/><stop offset="0.4" stop-color="#ece3cc"/><stop offset="0.76" stop-color="#d5c391"/><stop offset="1" stop-color="#c5ac66"/></linearGradient></defs><path class="cls-1" d="M285.19,225.4h-.77v-3.93h-7.53V241.6h1.76v.55H267.73v-.55h1.77V200.38h-1.77v-.55h17.46v7.86h-.77v-6.1h-7.53v18.19h7.53v-4h.77Z" transform="translate(-189.96 -99.06)"/><path class="cls-1" d="M308.82,242.15h-9.08v-2.48q-2.82,2.66-5.49,2.66-3.79,0-5.07-2.3a11.34,11.34,0,0,1-.84-5.14v-27h-2v-.6h9.15q0,3.21-.11,9.63t-.11,9.63V234q.36,6,2,6.05,2.54,0,2.53-6.6V207.27h9.08v.6h-2V241.6h2Z" transform="translate(-189.96 -99.06)"/><path class="cls-1" d="M321.56,242.15H310.51v-.55h2V200.26h-2v-.49h9.08V241.6h2Z" transform="translate(-189.96 -99.06)"/><path class="cls-1" d="M334.77,239.79a6.41,6.41,0,0,1-5.56,2.78c-2.39,0-4-.74-4.72-2.24a11,11,0,0,1-.77-4.89V208.05H322v-.78h1.76v-4.84h7.18v4.84h2.82v.78H330.9v30.11c0,1.73.42,2.6,1.27,2.6a3.9,3.9,0,0,0,2.18-1.33Z" transform="translate(-189.96 -99.06)"/><path class="cls-1" d="M354,220.35v6.48q-.08,4.29-.07,6.48,0,4.91-1.62,6.9-2,2.47-7.39,2.48t-7.53-1.81A6.82,6.82,0,0,1,335.1,236v-6.78c0-1.49,0-3.7.07-6.63s.07-5.12.07-6.57c0-3,.7-5.2,2.08-6.63s3.77-2.15,7.14-2.15,5.8.6,7.25,1.82a6.64,6.64,0,0,1,2.19,4.72C353.94,214.13,354,216.31,354,220.35Zm-7-.3v-6.79c-.24-3.59-1-5.39-2.18-5.39q-2.47,0-2.47,4.91v8.29c0,3.72-.07,6.5-.07,8.36,0,.12,0,.69-.07,1.7v2.72q0,8.18,2.39,8.18t2.26-5.33c0-1.86,0-4.64.07-8.36S346.93,221.86,346.93,220.05Z" transform="translate(-189.96 -99.06)"/><path class="cls-1" d="M378.65,242.15h-8.94V215.61c-.18-4-.82-6-1.9-6-1.74,0-2.6,2.21-2.6,6.65v25.93h-9.08v-.55h2V208.05h-2v-.54h9.08V210c1.88-1.82,3.7-2.72,5.49-2.72,2.53,0,4.24.76,5.14,2.3a11.59,11.59,0,0,1,.84,5.15V241.6h2Z" transform="translate(-189.96 -99.06)"/><path class="cls-2" d="M399.29,224.24v6.46a12.23,12.23,0,0,1-6.1,1.72c-4.31,0-7.86-3.06-7.86-8.56,0-5,3.2-9,8-9,1.81,0,4.82.62,5.52,4a4.87,4.87,0,0,1-.53.21,5.36,5.36,0,0,0-4.74-2.66c-3.1,0-6,2.38-6,7.22,0,3.55,1.76,7.31,6,7.31a8.26,8.26,0,0,0,3.65-.92v-4.39h-3.56v-1.41Z" transform="translate(-189.96 -99.06)"/><path class="cls-2" d="M425.11,231.92h-2.34l-4.18-7.64a10.12,10.12,0,0,1-2,.14c-.47,0-.71,0-1.05,0v7.54h-2.12V215.33h4.2c2.26,0,3.38.21,4.38.94a4.06,4.06,0,0,1,1.52,3.29,4.76,4.76,0,0,1-.8,2.66,4.37,4.37,0,0,1-2.09,1.59Zm-9.55-8.39c3.61.05,5.79-1.46,5.79-3.83a2.9,2.9,0,0,0-.64-1.86,3.47,3.47,0,0,0-3-1.08h-2.17Z" transform="translate(-189.96 -99.06)"/><path class="cls-2" d="M446.14,232.42c-4.48,0-7.62-3.48-7.62-8.75,0-4.7,2.57-8.84,7.6-8.84s7.55,4.4,7.55,8.72C453.67,228.63,450.85,232.42,446.14,232.42Zm0-16.13c-3.27,0-5.35,3.15-5.35,7.31,0,4.75,2.46,7.36,5.37,7.36,3.36,0,5.29-3.2,5.29-7.43C451.43,219.89,449.72,216.29,446.12,216.29Z" transform="translate(-189.96 -99.06)"/><path class="cls-2" d="M481.65,231.92h-2.12v-2.47a6,6,0,0,1-5.37,2.94,4.86,4.86,0,0,1-5.3-5.54V215.3H471v10.54a6.59,6.59,0,0,0,.55,3.36,3.72,3.72,0,0,0,3.2,1.62,6.68,6.68,0,0,0,4.8-2.59V215.3h2.12Z" transform="translate(-189.96 -99.06)"/><path class="cls-2" d="M500.35,231.92H498.2V215.33h4.89a7.79,7.79,0,0,1,3.38.49,3.85,3.85,0,0,1,2.14,3.69c0,2.66-1.81,4.94-6.39,4.94-.46,0-.59,0-1.87-.07Zm0-8.43a10.37,10.37,0,0,0,3.18-.31,3.57,3.57,0,0,0,2.87-3.46,3.18,3.18,0,0,0-.65-1.95c-.46-.59-1.14-1.06-3-1.06h-2.36Z" transform="translate(-189.96 -99.06)"/><path class="cls-3" d="M298.15,196.85s-23.08-23.6-51.91-8.78-20.19,52.73-20.19,52.73l-24.38-.37L218.23,170l64.67-3.71,14.93,11Z" transform="translate(-189.96 -99.06)"/><path d="M240.72,128.5c0,2.09,5.43,3.87,12.1,4s12.05-1.46,12-3.54-5.44-3.87-12.1-4S240.7,126.42,240.72,128.5Z" transform="translate(-189.96 -99.06)"/><path d="M201.79,148.32l39.39-18.68s3.5-3.09,11.57-3.09,11.68,4.15,11.68,4.15l38.43,20.7s-26.54-12.31-53-12.31A136.36,136.36,0,0,0,201.79,148.32Z" transform="translate(-189.96 -99.06)"/><path class="cls-1" d="M250.42,151.18v-1.34a1.4,1.4,0,0,0-2.78,0v1.34a2.8,2.8,0,0,0-1.93,2.53v3.69h6.64v-3.69A2.8,2.8,0,0,0,250.42,151.18Z" transform="translate(-189.96 -99.06)"/><path class="cls-1" d="M241.19,151.3v-1.37a1.23,1.23,0,0,0-1.37-1.18,1.45,1.45,0,0,0-1.37,1.37v1.38a3.12,3.12,0,0,0-1.92,2.73V158l6.59-.47v-3.77A2.61,2.61,0,0,0,241.19,151.3Z" transform="translate(-189.96 -99.06)"/><path class="cls-1" d="M231.74,152.3v-1.38a1,1,0,0,0-1.15-1.09,1.51,1.51,0,0,0-1.16,1.48v1.38a3.54,3.54,0,0,0-1.61,2.89v3.81l5.55-.94v-3.8A2.37,2.37,0,0,0,231.74,152.3Z" transform="translate(-189.96 -99.06)"/><path class="cls-1" d="M224.4,153.91V152.5c0-.72-.45-1.19-1-1a1.68,1.68,0,0,0-1,1.6v1.41a4.18,4.18,0,0,0-1.37,3.07l0,3.89,4.72-1.37,0-3.89A2.21,2.21,0,0,0,224.4,153.91Z" transform="translate(-189.96 -99.06)"/><path class="cls-1" d="M216.8,156l-.13-1.48c-.08-.75-.42-1.24-.78-1.07s-.59.9-.51,1.65l.14,1.48a5.21,5.21,0,0,0-.65,3.19l.38,4.07,3.09-1.39-.38-4.07A2.84,2.84,0,0,0,216.8,156Z" transform="translate(-189.96 -99.06)"/><path class="cls-1" d="M210.79,159l-.17-1.47c-.1-.75-.42-1.2-.74-1a2,2,0,0,0-.4,1.72l.18,1.47a5.89,5.89,0,0,0-.47,3.28l.49,4.05,2.73-1.71-.49-4C211.77,160,211.32,159.17,210.79,159Z" transform="translate(-189.96 -99.06)"/><path class="cls-1" d="M205.7,162.27l-.37-1.53c-.19-.79-.52-1.23-.74-1a2.74,2.74,0,0,0-.05,1.88l.37,1.53a8.29,8.29,0,0,0,.14,3.53l1,4.22,1.9-2.16-1-4.22C206.64,163.25,206.15,162.41,205.7,162.27Z" transform="translate(-189.96 -99.06)"/><path class="cls-1" d="M202.18,166.1l-.49-1.53c-.26-.79-.53-1.16-.62-.82a5.34,5.34,0,0,0,.31,2l.49,1.54a15.25,15.25,0,0,0,.72,3.75L204,175.3l.74-2.92-1.36-4.22C202.92,166.86,202.47,166.1,202.18,166.1Z" transform="translate(-189.96 -99.06)"/><path class="cls-1" d="M258,151.49l.05-1.37a1.28,1.28,0,0,1,1.55-1.1,1.53,1.53,0,0,1,1.45,1.44l-.06,1.37a3.21,3.21,0,0,1,2,2.83l-.15,3.77-7.2-.82.15-3.77A2.65,2.65,0,0,1,258,151.49Z" transform="translate(-189.96 -99.06)"/><path class="cls-1" d="M268.31,153l.06-1.39a1.05,1.05,0,0,1,1.3-1,1.57,1.57,0,0,1,1.22,1.54l-.06,1.37a3.53,3.53,0,0,1,1.65,3l-.15,3.8-6-1.22.15-3.81A2.35,2.35,0,0,1,268.31,153Z" transform="translate(-189.96 -99.06)"/><path class="cls-1" d="M276.29,155l.07-1.41c0-.73.54-1.16,1.12-1a1.67,1.67,0,0,1,1,1.65l-.06,1.41a4.08,4.08,0,0,1,1.37,3.14l-.18,3.88-5.12-1.62.18-3.88A2.16,2.16,0,0,1,276.29,155Z" transform="translate(-189.96 -99.06)"/><path class="cls-1" d="M284.52,157.43l.21-1.47c.11-.75.51-1.21.89-1s.61.93.5,1.67l-.21,1.47a5,5,0,0,1,.58,3.23l-.58,4-3.32-1.55.57-4A2.76,2.76,0,0,1,284.52,157.43Z" transform="translate(-189.96 -99.06)"/><path class="cls-1" d="M291,160.75l.26-1.45c.12-.76.5-1.19.83-1a1.9,1.9,0,0,1,.38,1.74l-.25,1.46a5.54,5.54,0,0,1,.38,3.3l-.69,4L289,167l.69-4C289.87,161.75,290.4,160.92,291,160.75Z" transform="translate(-189.96 -99.06)"/><path class="cls-1" d="M296.41,164.52l.47-1.39c.23-.71.63-1.09.88-.82a2.11,2.11,0,0,1,0,1.76l-.46,1.39a6.31,6.31,0,0,1-.25,3.3l-1.27,3.84-2.16-2.25,1.27-3.84C295.3,165.33,295.9,164.6,296.41,164.52Z" transform="translate(-189.96 -99.06)"/><path class="cls-1" d="M300.14,168.39l.61-1.46c.3-.75.62-1.09.71-.75a4.47,4.47,0,0,1-.42,2l-.61,1.47a12.57,12.57,0,0,1-.94,3.63l-1.66,4-.72-2.92,1.67-4C299.29,169.09,299.81,168.38,300.14,168.39Z" transform="translate(-189.96 -99.06)"/><path d="M245.59,176.11c38.68-10.48,52.56,20.74,52.56,20.74l-.34-23.16s-12.82-15.52-46.19-17c-24.68-1.1-45.23,6.14-47.51,15.52l-.05.1-2.39,68.12S209.57,185.87,245.59,176.11Z" transform="translate(-189.96 -99.06)"/><path d="M244.81,118.75c0,2.08,3.58,3.77,8,3.77s8-1.69,8-3.77-3.59-3.77-8-3.77S244.81,116.67,244.81,118.75Z" transform="translate(-189.96 -99.06)"/><path d="M249.09,116.73a3.66,3.66,0,1,0,3.66-3.77A3.73,3.73,0,0,0,249.09,116.73Z" transform="translate(-189.96 -99.06)"/><path d="M250.11,123.5c0,1.1,1.22,2,2.71,2s2.71-.89,2.71-2-1.21-2-2.71-2S250.11,122.4,250.11,123.5Z" transform="translate(-189.96 -99.06)"/><path class="cls-1" d="M252.05,114.69V99.62a.57.57,0,0,1,.59-.56h0a.58.58,0,0,1,.6.56h0v15.07a.59.59,0,0,1-.6.57h0a.58.58,0,0,1-.59-.57Z" transform="translate(-189.96 -99.06)"/><path d="M241.18,129.21s9.24-8.6,22.19.85C263.37,130.06,250.2,124.64,241.18,129.21Z" transform="translate(-189.96 -99.06)"/><path class="cls-4" d="M198.35,167.1c.46-13.57,24.66-23.77,54.06-22.78s52.86,12.81,52.4,26.39c-.16,4.72-3.21,9-8.35,12.62v2.1c9.12-4.22,14.75-9.91,15-16.33.49-14.3-26-26.79-59.07-27.92s-60.35,9.57-60.83,23.87c-.28,8.1,8.1,15.62,21.43,20.82l0-1.09C203.7,180,198.12,173.78,198.35,167.1Z" transform="translate(-189.96 -99.06)"/><path d="M313.19,167.48c.53-15.72-26.62-29.39-60.64-30.54S190.5,147.6,190,163.31c-.31,9.11,8.72,17.54,23,23.24v-.68c-13.33-5.2-21.71-12.72-21.43-20.82.48-14.3,27.71-25,60.83-23.87s59.56,13.62,59.07,27.92c-.21,6.42-5.84,12.11-15,16.33v.67C306.62,181.38,312.94,174.86,313.19,167.48Z" transform="translate(-189.96 -99.06)"/><path d="M199.69,168.6c.41-12.35,23.94-21.58,52.55-20.61s51.46,11.77,51.05,24.12c-.14,3.92-2.61,7.53-6.83,10.6v.62c5.14-3.58,8.19-7.9,8.35-12.62.46-13.58-23-25.39-52.4-26.39s-53.6,9.21-54.06,22.78c-.23,6.68,5.35,12.94,14.58,17.68l0-.55C204.52,180,199.49,174.46,199.69,168.6Z" transform="translate(-189.96 -99.06)"/><line class="cls-5" x1="41.57" y1="137.06" x2="75.14" y2="137.06"/><path class="cls-1" d="M240.44,212.92H240v-3.74h-2.65V232.1h.86v.32h-5.37v-.32h.89V209.18h-2.68v3.74h-.38V208h9.75Z" transform="translate(-189.96 -99.06)"/><path class="cls-1" d="M252.93,232.42h-4.44c0-1.23,0-3.07,0-5.51s0-4.27,0-5.48V217.1c-.11-2.32-.43-3.49-1-3.49-.83,0-1.24,1.29-1.24,3.84v15h-4.44v-.32h1V208.24h-1V208h5.4v.28h-1v5.62a3.75,3.75,0,0,1,2.69-1.57,2.45,2.45,0,0,1,2.47,1.33,7.44,7.44,0,0,1,.42,3V232.1h1Z" transform="translate(-189.96 -99.06)"/><path class="cls-1" d="M263.27,218.23v3.65H258c0,.51,0,1.28,0,2.3v2.29a28.88,28.88,0,0,0,.1,3.41q.38,2,2.1,2c1.52,0,2.41-1.08,2.69-3.24h.34a4.41,4.41,0,0,1-1.07,2.91,4,4,0,0,1-2.85.86,5.82,5.82,0,0,1-3.69-.91,3.49,3.49,0,0,1-1.07-2.51c0-.16,0-1.42,0-3.79,0-.88,0-2.21,0-4s0-3.09,0-4a6.9,6.9,0,0,1,.75-3.76c.62-.88,1.8-1.33,3.54-1.33,1.94,0,3.22.56,3.84,1.67A9.84,9.84,0,0,1,263.27,218.23Zm-3.41-1.34v-1.71c0-1.81-.35-2.72-1.05-2.72-.48,0-.77.72-.88,2.17v4.74c0,.91,0,1.59,0,2.06h1.9v-4.54Z" transform="translate(-189.96 -99.06)"/><line class="cls-5" x1="193.19" y1="137.06" x2="318.34" y2="137.06"/></svg>